# xmcd
#
# Track frame offsets:
#	150
#	19197
#	35857
#	49520
#	67450
#	77557
#	101667
#	112392
#	128270
#
# Disc length: 1875 seconds
#
# Revision: 0
# Processed by: cddbd v1.5.2PL0 Copyright (c) Steve Scherf et al.
# Submitted via: EasyCDDAExtractor 10.2.0.1
#
DISCID=7c075109
DTITLE=The Marksmen - He Is I Am
DYEAR=1993
DGENRE=Bluegrass
TTITLE0=He Is I Am
TTITLE1=Working On My Second Million
TTITLE2=Bones, Bone Bones
TTITLE3=Mercy And Grace
TTITLE4=Get Up John
TTITLE5=A Picture From Life's Other Side
TTITLE6=So High, So Low
TTITLE7=If I Could Win Only One
TTITLE8=Hide Me Rock Of Ages
EXTD=
EXTT0=
EXTT1=
EXTT2=
EXTT3=
EXTT4=
EXTT5=
EXTT6=
EXTT7=
EXTT8=
PLAYORDER=
